<?xml version="1.0" encoding="UTF-8"?>
<svg width="233px" height="404px" viewBox="0 0 233 404" version="1.1" xmlns="http://www.w3.org/2000/svg" xmlns:xlink="http://www.w3.org/1999/xlink">
    <!-- Generator: Sketch 42 (36781) - http://www.bohemiancoding.com/sketch -->
    <title>Motores</title>
    <desc>Created with Sketch.</desc>
    <defs>
        <rect id="path-1" x="0" y="8" width="233" height="388" rx="22"></rect>
        <mask id="mask-2" maskContentUnits="userSpaceOnUse" maskUnits="objectBoundingBox" x="0" y="0" width="233" height="388" fill="white">
            <use xlink:href="#path-1"></use>
        </mask>
        <rect id="path-3" x="0" y="0" width="108" height="60"></rect>
        <mask id="mask-4" maskContentUnits="userSpaceOnUse" maskUnits="objectBoundingBox" x="0" y="0" width="108" height="60" fill="white">
            <use xlink:href="#path-3"></use>
        </mask>
        <rect id="path-5" x="0" y="0" width="108" height="60"></rect>
        <mask id="mask-6" maskContentUnits="userSpaceOnUse" maskUnits="objectBoundingBox" x="0" y="0" width="108" height="60" fill="white">
            <use xlink:href="#path-5"></use>
        </mask>
        <rect id="path-7" x="0" y="0" width="100" height="110"></rect>
        <mask id="mask-8" maskContentUnits="userSpaceOnUse" maskUnits="objectBoundingBox" x="0" y="0" width="100" height="110" fill="white">
            <use xlink:href="#path-7"></use>
        </mask>
    </defs>
    <g id="Shield-Light" stroke="none" stroke-width="1" fill="none" fill-rule="evenodd">
        <g id="Motores">
            <use id="Rectangle-9" stroke="#75848D" mask="url(#mask-2)" stroke-width="4" fill="#F1F5F7" xlink:href="#path-1"></use>
            <g id="conector" transform="translate(4.000000, 0.000000)">
                <use id="Rectangle-10" stroke="#979797" mask="url(#mask-4)" stroke-width="2" fill="#C0F5FC" xlink:href="#path-3"></use>
                <ellipse id="Oval-3" stroke="#75848D" stroke-width="3" fill="#FFFFFF" cx="14" cy="48" rx="6" ry="6"></ellipse>
                <ellipse id="Oval-3" stroke="#75848D" stroke-width="3" fill="#FFFFFF" cx="30" cy="48" rx="6" ry="6"></ellipse>
                <ellipse id="Oval-3" stroke="#75848D" stroke-width="3" fill="#FFFFFF" cx="46" cy="48" rx="6" ry="6"></ellipse>
                <ellipse id="Oval-3" stroke="#75848D" stroke-width="3" fill="#FFFFFF" cx="62" cy="48" rx="6" ry="6"></ellipse>
                <ellipse id="Oval-3" stroke="#75848D" stroke-width="3" fill="#FFFFFF" cx="78" cy="48" rx="6" ry="6"></ellipse>
                <ellipse id="Oval-3" stroke="#75848D" stroke-width="3" fill="#FFFFFF" cx="94" cy="48" rx="6" ry="6"></ellipse>
            </g>
            <g id="conector-copy" transform="translate(121.000000, 0.000000)">
                <use id="Rectangle-10" stroke="#979797" mask="url(#mask-6)" stroke-width="2" fill="#C0F5FC" xlink:href="#path-5"></use>
                <ellipse id="Oval-3" stroke="#75848D" stroke-width="3" fill="#FFFFFF" cx="14" cy="48" rx="6" ry="6"></ellipse>
                <ellipse id="Oval-3" stroke="#75848D" stroke-width="3" fill="#FFFFFF" cx="30" cy="48" rx="6" ry="6"></ellipse>
                <ellipse id="Oval-3" stroke="#75848D" stroke-width="3" fill="#FFFFFF" cx="46" cy="48" rx="6" ry="6"></ellipse>
                <ellipse id="Oval-3" stroke="#75848D" stroke-width="3" fill="#FFFFFF" cx="62" cy="48" rx="6" ry="6"></ellipse>
                <ellipse id="Oval-3" stroke="#75848D" stroke-width="3" fill="#FFFFFF" cx="78" cy="48" rx="6" ry="6"></ellipse>
                <ellipse id="Oval-3" stroke="#75848D" stroke-width="3" fill="#FFFFFF" cx="94" cy="48" rx="6" ry="6"></ellipse>
            </g>
            <g id="ranuras" transform="translate(36.000000, 121.000000)" stroke-width="2" stroke="#E1DEFD" fill="#FFFFFF">
                <g id="ranura">
                    <circle id="Oval" cx="18.5" cy="18.5" r="18.5"></circle>
                </g>
                <g id="ranura" transform="translate(0.000000, 125.000000)">
                    <circle id="Oval" cx="18.5" cy="18.5" r="18.5"></circle>
                </g>
                <g id="ranura" transform="translate(124.000000, 0.000000)">
                    <circle id="Oval" cx="18.5" cy="18.5" r="18.5"></circle>
                </g>
                <g id="ranura" transform="translate(124.000000, 125.000000)">
                    <circle id="Oval" cx="18.5" cy="18.5" r="18.5"></circle>
                </g>
            </g>
            <ellipse id="Oval-3-Copy" stroke="#75848D" stroke-width="3" fill="#FFFFFF" cx="20" cy="182" rx="6" ry="6"></ellipse>
            <ellipse id="Oval-3-Copy-2" stroke="#75848D" stroke-width="3" fill="#FFFFFF" cx="38" cy="182" rx="6" ry="6"></ellipse>
            <ellipse id="Oval-3-Copy-13" stroke="#75848D" stroke-width="3" fill="#FFFFFF" cx="195" cy="326" rx="6" ry="6"></ellipse>
            <ellipse id="Oval-3-Copy-12" stroke="#75848D" stroke-width="3" fill="#FFFFFF" cx="213" cy="326" rx="6" ry="6"></ellipse>
            <ellipse id="Oval-3-Copy-4" stroke="#75848D" stroke-width="3" fill="#FFFFFF" cx="20" cy="202" rx="6" ry="6"></ellipse>
            <ellipse id="Oval-3-Copy-3" stroke="#75848D" stroke-width="3" fill="#FFFFFF" cx="38" cy="202" rx="6" ry="6"></ellipse>
            <ellipse id="Oval-3-Copy-6" stroke="#75848D" stroke-width="3" fill="#FFFFFF" cx="20" cy="222" rx="6" ry="6"></ellipse>
            <ellipse id="Oval-3-Copy-5" stroke="#75848D" stroke-width="3" fill="#FFFFFF" cx="38" cy="222" rx="6" ry="6"></ellipse>
            <g id="conector" transform="translate(67.000000, 294.000000)" stroke="#5764C6" stroke-width="4" fill="#E1DEFD">
                <use id="Rectangle-2" mask="url(#mask-8)" xlink:href="#path-7"></use>
            </g>
            <ellipse id="Oval-3-Copy" stroke="#75848D" stroke-width="3" fill="#FFFFFF" cx="213" cy="153" rx="6" ry="6"></ellipse>
            <ellipse id="Oval-3-Copy-7" stroke="#75848D" stroke-width="3" fill="#FFFFFF" cx="213" cy="172.8" rx="6" ry="6"></ellipse>
            <ellipse id="Oval-3-Copy-8" stroke="#75848D" stroke-width="3" fill="#FFFFFF" cx="213" cy="192.6" rx="6" ry="6"></ellipse>
            <ellipse id="Oval-3-Copy-9" stroke="#75848D" stroke-width="3" fill="#FFFFFF" cx="213" cy="212.4" rx="6" ry="6"></ellipse>
            <ellipse id="Oval-3-Copy-10" stroke="#75848D" stroke-width="3" fill="#FFFFFF" cx="213" cy="232.2" rx="6" ry="6"></ellipse>
            <ellipse id="Oval-3-Copy-11" stroke="#75848D" stroke-width="3" fill="#FFFFFF" cx="213" cy="252" rx="6" ry="6"></ellipse>
        </g>
    </g>
</svg>