<?xml version="1.0" encoding="UTF-8"?>
<svg width="100px" height="170px" viewBox="0 0 100 170" version="1.1" xmlns="http://www.w3.org/2000/svg" xmlns:xlink="http://www.w3.org/1999/xlink">
    <!-- Generator: Sketch 42 (36781) - http://www.bohemiancoding.com/sketch -->
    <title>gadget</title>
    <desc>Created with Sketch.</desc>
    <defs></defs>
    <g id="Page-1" stroke="none" stroke-width="1" fill="none" fill-rule="evenodd">
        <g id="Configuration-01" transform="translate(-368.000000, -495.000000)" fill-rule="nonzero">
            <g id="Group-4" transform="translate(179.000000, 389.000000)">
                <g id="Group-3" transform="translate(68.000000, 14.000000)">
                    <g id="gadget" transform="translate(121.000000, 92.000000)">
                        <g id="Layer_1">
                            <path d="M89.3294702,36.9145695 L77.2615894,36.9145695 L77.2615894,4.25960265 C77.2615894,1.90695364 75.3543046,0 73.0019868,0 C70.6496689,0 68.7423841,1.90695364 68.7423841,4.25960265 L68.7423841,36.9145695 L33.386755,36.9145695 L33.386755,4.25960265 C33.386755,1.90695364 31.4791391,0 29.1271523,0 C26.7748344,0 24.8675497,1.90695364 24.8675497,4.25960265 L24.8675497,36.9145695 L10.6698675,36.9145695 C4.87549669,36.9145695 0.161258278,41.6288079 0.161258278,47.4231788 L0.161258278,57.3609272 C0.161258278,62.7225166 4.1986755,67.1559603 9.39205298,67.7890728 L15.0264901,104.248344 C16.7245033,115.268543 25.7331126,123.388411 36.7228477,124.048675 L36.7228477,132.864238 C36.7228477,138.161921 40.647351,142.557616 45.7407285,143.299669 L45.7407285,165.27649 C45.7407285,167.629139 47.6483444,169.536093 50.0003311,169.536093 C52.352649,169.536093 54.2599338,167.629139 54.2599338,165.27649 L54.2599338,143.299669 C59.3533113,142.557947 63.2778146,138.161921 63.2778146,132.864238 L63.2778146,124.048675 C74.2668874,123.388411 83.2758278,115.268543 84.9738411,104.250331 L90.6086093,67.7890728 C95.8019868,67.1559603 99.839404,62.7225166 99.839404,57.3609272 L99.839404,47.4228477 C99.8380795,41.6288079 95.1238411,36.9145695 89.3294702,36.9145695 Z M54.7576159,132.86457 C54.7576159,133.982781 53.85,134.892053 52.734106,134.892053 L47.2649007,134.892053 C46.1493377,134.892053 45.2413907,133.98245 45.2413907,132.86457 L45.2413907,124.098013 L54.7576159,124.098013 L54.7576159,132.86457 Z M91.3188742,57.3612583 C91.3188742,58.4582781 90.4264901,59.3506623 89.3294702,59.3506623 L82.1602649,59.3506623 C79.807947,59.3506623 77.9006623,61.2576159 77.9006623,63.6102649 C77.9006623,65.9006623 79.7099338,67.7635762 81.9758278,67.860596 L76.5529801,102.951656 C75.4258278,110.268212 69.2334437,115.578808 61.8288079,115.578808 L59.0175497,115.578808 L40.9817881,115.578808 L38.1705298,115.578808 C30.7655629,115.578808 24.5731788,110.268543 23.4460265,102.95 L18.0248344,67.8698675 L57.0629139,67.8698675 C59.4152318,67.8698675 61.3225166,65.9629139 61.3225166,63.6102649 C61.3225166,61.2576159 59.4149007,59.3506623 57.0629139,59.3506623 L10.6695364,59.3506623 C9.57251656,59.3506623 8.68013245,58.4582781 8.68013245,57.3612583 L8.68013245,47.4231788 C8.68013245,46.3261589 9.57251656,45.4337748 10.6695364,45.4337748 L89.3294702,45.4337748 C90.4264901,45.4337748 91.3188742,46.3261589 91.3188742,47.4231788 L91.3188742,57.3612583 L91.3188742,57.3612583 Z" id="Shape" fill="#394C9B"></path>
                            <path d="M70.4109272,59.3506623 L69.7360927,59.3506623 L68.8751656,59.3506623 C66.5228477,59.3506623 64.6155629,61.2576159 64.6155629,63.6102649 C64.6155629,65.9629139 66.5231788,67.8698675 68.8751656,67.8698675 L69.7360927,67.8698675 L70.4109272,67.8698675 C72.763245,67.8698675 74.6705298,65.9629139 74.6705298,63.6102649 C74.6705298,61.2576159 72.7629139,59.3506623 70.4109272,59.3506623 Z" id="Shape" fill="#F5A623"></path>
                            <path d="M63.6307947,77.1006623 L37.2205298,77.1006623 C34.8682119,77.1006623 32.9609272,79.0076159 32.9609272,81.3602649 C32.9609272,83.7129139 34.868543,85.6198675 37.2205298,85.6198675 L63.6307947,85.6198675 C65.9831126,85.6198675 67.8903974,83.7129139 67.8903974,81.3602649 C67.8903974,79.007947 65.9827815,77.1006623 63.6307947,77.1006623 Z" id="Shape" fill="#F5A623"></path>
                            <path d="M59.0172185,93.9990066 L41.8377483,93.9990066 C39.4854305,93.9990066 37.5781457,95.9059603 37.5781457,98.2586093 C37.5781457,100.611258 39.4857616,102.518212 41.8377483,102.518212 L59.0172185,102.518212 C61.3695364,102.518212 63.2768212,100.611258 63.2768212,98.2586093 C63.2771523,95.9059603 61.3695364,93.9990066 59.0172185,93.9990066 Z" id="Shape" fill="#F5A623"></path>
                        </g>
                    </g>
                </g>
            </g>
        </g>
    </g>
</svg>