<?xml version="1.0" encoding="UTF-8"?>
<svg width="200px" height="97px" viewBox="0 0 200 97" version="1.1" xmlns="http://www.w3.org/2000/svg" xmlns:xlink="http://www.w3.org/1999/xlink">
    <!-- Generator: Sketch 42 (36781) - http://www.bohemiancoding.com/sketch -->
    <title>password</title>
    <desc>Created with Sketch.</desc>
    <defs></defs>
    <g id="Page-1" stroke="none" stroke-width="1" fill="none" fill-rule="evenodd">
        <g id="Configuration-03" transform="translate(-318.000000, -582.000000)" fill-rule="nonzero">
            <g id="Group-3" transform="translate(247.000000, 454.000000)">
                <g id="password" transform="translate(71.000000, 128.000000)">
                    <g id="Capa_1">
                        <g id="Group">
                            <path d="M187.671233,0 L12.3287671,0 C5.53072407,0 0,5.53072407 0,12.3287671 L0,49.9021526 C0,56.7001957 5.53072407,62.2309198 12.3287671,62.2309198 L121.917808,62.2309198 C123.538943,62.2309198 124.853229,60.9166341 124.853229,59.295499 C124.853229,57.674364 123.538943,56.3600783 121.917808,56.3600783 L12.3287671,56.3600783 C8.76790607,56.3600783 5.87084149,53.4630137 5.87084149,49.9021526 L5.87084149,12.3287671 C5.87084149,8.76790607 8.76790607,5.87084149 12.3287671,5.87084149 L187.671233,5.87084149 C191.232094,5.87084149 194.129159,8.76790607 194.129159,12.3287671 L194.129159,40.5088063 C194.129159,42.1299413 195.443444,43.444227 197.064579,43.444227 C198.685714,43.444227 200,42.1299413 200,40.5088063 L200,12.3287671 C200,5.53072407 194.469276,0 187.671233,0 Z" id="Shape" fill="#394C9B"></path>
                            <path d="M187.475538,47.4497065 L187.475538,43.6399217 C187.475538,29.9358121 176.326419,18.7866928 162.622309,18.7866928 C148.9182,18.7866928 137.76908,29.9358121 137.76908,43.6399217 L137.76908,47.4497065 C134.133072,48.6778865 131.506849,52.1189824 131.506849,56.1643836 L131.506849,87.4755382 C131.506849,92.5471624 135.632877,96.6731898 140.704501,96.6731898 L184.540117,96.6731898 C189.611742,96.6731898 193.737769,92.5471624 193.737769,87.4755382 L193.737769,56.1643836 C193.737769,52.1189824 191.111546,48.6778865 187.475538,47.4497065 Z M162.622309,24.6575342 C173.089237,24.6575342 181.604697,33.1729941 181.604697,43.6399217 L181.604697,46.9667319 L143.639922,46.9667319 L143.639922,43.6399217 C143.639922,33.1729941 152.155382,24.6575342 162.622309,24.6575342 Z M187.866928,87.4755382 C187.866928,89.3099804 186.37456,90.8023483 184.540117,90.8023483 L140.704501,90.8023483 C138.870059,90.8023483 137.377691,89.3099804 137.377691,87.4755382 L137.377691,56.1643836 C137.377691,54.3299413 138.870059,52.8375734 140.704501,52.8375734 L184.540117,52.8375734 C186.37456,52.8375734 187.866928,54.3299413 187.866928,56.1643836 L187.866928,87.4755382 Z" id="Shape" fill="#394C9B"></path>
                            <path d="M47.635225,23.3855186 C46.8246575,21.9812133 45.0293542,21.5005871 43.6254403,22.3111546 L37.1819961,26.0313112 L37.1819961,18.590998 C37.1819961,16.969863 35.8677104,15.6555773 34.2465753,15.6555773 C32.6254403,15.6555773 31.3111546,16.969863 31.3111546,18.590998 L31.3111546,26.0313112 L24.8677104,22.3111546 C23.4637965,21.5001957 21.6684932,21.9816047 20.8579256,23.3855186 C20.0473581,24.7894325 20.5283757,26.5847358 21.9322896,27.3953033 L28.3757339,31.1154599 L21.9322896,34.8356164 C20.5283757,35.646184 20.0473581,37.4414873 20.8579256,38.8454012 C21.4015656,39.7870841 22.3882583,40.3135029 23.4027397,40.3135029 C23.9005871,40.3135029 24.4054795,40.1866928 24.8677104,39.9197652 L31.3111546,36.1996086 L31.3111546,43.6399217 C31.3111546,45.2610568 32.6254403,46.5753425 34.2465753,46.5753425 C35.8677104,46.5753425 37.1819961,45.2610568 37.1819961,43.6399217 L37.1819961,36.1996086 L43.6254403,39.9197652 C44.0876712,40.1866928 44.5925636,40.3135029 45.090411,40.3135029 C46.1048924,40.3135029 47.0915851,39.7870841 47.635225,38.8454012 C48.4457926,37.4414873 47.964775,35.646184 46.5608611,34.8356164 L40.1174168,31.1154599 L46.5608611,27.3953033 C47.964775,26.5847358 48.4457926,24.7894325 47.635225,23.3855186 Z" id="Shape" fill="#F5A623"></path>
                            <path d="M85.2086106,23.3855186 C84.3980431,21.9812133 82.6027397,21.5005871 81.1988258,22.3111546 L74.7553816,26.0313112 L74.7553816,18.590998 C74.7553816,16.969863 73.4410959,15.6555773 71.8199609,15.6555773 C70.1988258,15.6555773 68.8845401,16.969863 68.8845401,18.590998 L68.8845401,26.0313112 L62.4410959,22.3111546 C61.037182,21.5001957 59.2418787,21.9816047 58.4313112,23.3855186 C57.6207436,24.7894325 58.1017613,26.5847358 59.5056751,27.3953033 L65.9491194,31.1154599 L59.5056751,34.8356164 C58.1017613,35.646184 57.6207436,37.4414873 58.4313112,38.8454012 C58.9749511,39.7870841 59.9616438,40.3135029 60.9761252,40.3135029 C61.4739726,40.3135029 61.978865,40.1866928 62.4410959,39.9197652 L68.8845401,36.1996086 L68.8845401,43.6399217 C68.8845401,45.2610568 70.1988258,46.5753425 71.8199609,46.5753425 C73.4410959,46.5753425 74.7553816,45.2610568 74.7553816,43.6399217 L74.7553816,36.1996086 L81.1988258,39.9197652 C81.6610568,40.1866928 82.1659491,40.3135029 82.6637965,40.3135029 C83.6782779,40.3135029 84.6649706,39.7870841 85.2086106,38.8454012 C86.0191781,37.4414873 85.5381605,35.646184 84.1342466,34.8356164 L77.6908023,31.1154599 L84.1342466,27.3953033 C85.5381605,26.5847358 86.0191781,24.7894325 85.2086106,23.3855186 Z" id="Shape" fill="#F5A623"></path>
                            <path d="M122.781996,23.3855186 C121.971429,21.9812133 120.176125,21.5005871 118.772211,22.3111546 L112.328767,26.0313112 L112.328767,18.590998 C112.328767,16.969863 111.014481,15.6555773 109.393346,15.6555773 C107.772211,15.6555773 106.457926,16.969863 106.457926,18.590998 L106.457926,26.0313112 L100.014481,22.3111546 C98.6105675,21.5001957 96.8152642,21.9816047 96.0046967,23.3855186 C95.1941292,24.7894325 95.6751468,26.5847358 97.0790607,27.3953033 L103.522505,31.1154599 L97.0790607,34.8356164 C95.6751468,35.646184 95.1941292,37.4414873 96.0046967,38.8454012 C96.5483366,39.7870841 97.5350294,40.3135029 98.5495108,40.3135029 C99.0473581,40.3135029 99.5522505,40.1866928 100.014481,39.9197652 L106.457926,36.1996086 L106.457926,43.6399217 C106.457926,45.2610568 107.772211,46.5753425 109.393346,46.5753425 C111.014481,46.5753425 112.328767,45.2610568 112.328767,43.6399217 L112.328767,36.1996086 L118.772211,39.9197652 C119.234442,40.1866928 119.739335,40.3135029 120.237182,40.3135029 C121.251663,40.3135029 122.238356,39.7870841 122.781996,38.8454012 C123.592564,37.4414873 123.111546,35.646184 121.707632,34.8356164 L115.264188,31.1154599 L121.707632,27.3953033 C123.111546,26.5847358 123.592564,24.7894325 122.781996,23.3855186 Z" id="Shape" fill="#F5A623"></path>
                            <path d="M162.622309,59.4911937 C157.550685,59.4911937 153.424658,63.6172211 153.424658,68.6888454 C153.424658,72.7342466 156.050881,76.1753425 159.686888,77.4035225 L159.686888,81.2133072 C159.686888,82.8344423 161.001174,84.148728 162.622309,84.148728 C164.243444,84.148728 165.55773,82.8344423 165.55773,81.2133072 L165.55773,77.4035225 C169.193738,76.1753425 171.819961,72.7342466 171.819961,68.6888454 C171.819961,63.6172211 167.693933,59.4911937 162.622309,59.4911937 Z M162.622309,72.0156556 C160.787867,72.0156556 159.295499,70.5232877 159.295499,68.6888454 C159.295499,66.8544031 160.787867,65.3620352 162.622309,65.3620352 C164.456751,65.3620352 165.949119,66.8544031 165.949119,68.6888454 C165.949119,70.5232877 164.456751,72.0156556 162.622309,72.0156556 Z" id="Shape" fill="#394C9B"></path>
                        </g>
                    </g>
                </g>
            </g>
        </g>
    </g>
</svg>