<?xml version="1.0" encoding="UTF-8"?>
<svg width="199px" height="197px" viewBox="0 0 199 197" version="1.1" xmlns="http://www.w3.org/2000/svg" xmlns:xlink="http://www.w3.org/1999/xlink">
    <!-- Generator: Sketch 42 (36781) - http://www.bohemiancoding.com/sketch -->
    <title>settings</title>
    <desc>Created with Sketch.</desc>
    <defs></defs>
    <g id="Welcome" stroke="none" stroke-width="1" fill="none" fill-rule="evenodd">
        <g id="Desktop-HD" transform="translate(-819.000000, -135.000000)" fill-rule="nonzero">
            <g id="settings" transform="translate(819.000000, 135.000000)">
                <g id="Layer_1">
                    <g id="Group">
                        <path d="M101.398251,196.128498 L111.329321,192.034465 C116.639403,189.845576 119.152572,183.724794 116.963683,178.455247 L114.409979,172.29393 C119.395782,168.605247 123.733025,164.227469 127.462243,159.241667 L133.62356,161.79537 C136.177263,162.84928 139.014712,162.84928 141.568416,161.79537 C144.122119,160.741461 146.148868,158.714712 147.202778,156.161008 L151.337346,146.229938 C153.526235,140.919856 151.013066,134.839609 145.702984,132.65072 L136.582613,128.880967 C134.515329,128.029733 132.204835,129.002572 131.353601,131.069856 C130.502366,133.13714 131.475206,135.447634 133.54249,136.298868 L142.66286,140.068621 C143.878909,140.555041 144.446399,141.973765 143.959979,143.189815 L139.825412,153.120885 C139.582202,153.688374 139.136317,154.174794 138.528292,154.418004 C137.960802,154.661214 137.312243,154.661214 136.704218,154.418004 L127.583848,150.648251 C125.800309,149.918621 123.77356,150.526646 122.71965,152.10751 C118.625617,158.268827 113.43714,163.457305 107.275823,167.551337 C105.694959,168.605247 105.046399,170.672531 105.776029,172.415535 L109.545782,181.535905 C110.032202,182.751955 109.464712,184.130144 108.248663,184.657099 L98.3175926,188.751132 C97.7501029,188.994342 97.1015432,188.994342 96.4935185,188.751132 C95.9260288,188.507922 95.4396091,188.062037 95.1963992,187.454012 L91.4266461,178.333642 C90.6970165,176.550103 88.8324074,175.536728 86.9272634,175.942078 C79.712037,177.401337 72.3346708,177.360802 65.1194444,175.942078 C63.2548354,175.577263 61.3496914,176.590638 60.6200617,178.333642 L56.8503086,187.454012 C56.3638889,188.670062 54.9451646,189.237551 53.7291152,188.751132 L43.7980453,184.616564 C43.2305556,184.373354 42.7441358,183.927469 42.5009259,183.319444 C42.257716,182.751955 42.257716,182.103395 42.5009259,181.49537 L46.270679,172.375 C47.0003086,170.591461 46.392284,168.564712 44.8114198,167.510802 C38.6501029,163.41677 33.4616255,158.228292 29.3675926,152.066975 C28.3136831,150.486111 26.2463992,149.837551 24.5033951,150.567181 L15.3830247,154.336934 C14.775,154.580144 14.1669753,154.580144 13.5589506,154.336934 C12.9914609,154.093724 12.5050412,153.64784 12.2618313,153.039815 L8.16779835,143.108745 C7.92458848,142.541255 7.92458848,141.892695 8.16779835,141.284671 C8.41100823,140.717181 8.856893,140.230761 9.4649177,139.987551 L18.5852881,136.217798 C20.3688272,135.488169 21.3416667,133.62356 20.9768519,131.718416 C19.5175926,124.503189 19.5581276,117.125823 20.9768519,109.910597 C21.3416667,108.045988 20.3282922,106.140844 18.5852881,105.411214 L9.4649177,101.641461 C8.24886831,101.155041 7.6813786,99.7363169 8.16779835,98.5202675 L12.3023663,88.5891975 C12.788786,87.3731481 14.2075103,86.8056584 15.4235597,87.2920782 L24.54393,91.0618313 C26.3274691,91.7914609 28.3542181,91.1834362 29.4081276,89.602572 C33.5021605,83.4412551 38.6906379,78.2527778 44.8519547,74.1587449 C46.4328189,73.1048354 47.0813786,71.0375514 46.351749,69.2945473 L42.5819959,60.174177 C42.338786,59.6066872 42.338786,58.9581276 42.5819959,58.3501029 C42.8252058,57.7826132 43.2710905,57.2961934 43.8791152,57.0529835 L53.8101852,52.9589506 C54.3776749,52.7157407 55.0262346,52.7157407 55.6342593,52.9589506 C56.201749,53.2021605 56.6881687,53.6480453 56.9313786,54.25607 L60.7011317,63.3764403 C61.5523663,65.4437243 63.9033951,66.4165638 65.930144,65.5653292 C67.997428,64.7140947 68.9702675,62.3630658 68.1190329,60.3363169 L64.3492798,51.2159465 C63.2953704,48.6622428 61.2686214,46.6354938 58.7149177,45.5815844 C57.4177984,45.0546296 56.080144,44.7708848 54.7424897,44.7708848 C53.4048354,44.7708848 52.0266461,45.0546296 50.7700617,45.5815844 L40.8389918,49.6756173 C38.2852881,50.7295267 36.2585391,52.7562757 35.2046296,55.3099794 C34.1507202,57.8636831 34.1507202,60.7011317 35.2046296,63.2548354 L37.7583333,69.4161523 C32.7725309,73.1048354 28.4352881,77.4826132 24.70607,82.4684156 L18.5447531,79.9147119 C13.2346708,77.725823 7.15442387,80.2389918 4.96553498,85.5490741 L0.790432099,95.480144 C-1.39845679,100.790226 1.11471193,106.870473 6.42479424,109.059362 L12.5861111,111.613066 C11.6943416,117.733848 11.6943416,123.9357 12.5861111,130.056481 L6.42479424,132.610185 C3.87109053,133.664095 1.84434156,135.690844 0.790432099,138.244547 C-0.263477366,140.798251 -0.263477366,143.6357 0.790432099,146.189403 L4.88446502,156.120473 C5.93837449,158.674177 7.96512346,160.700926 10.5188272,161.754835 C13.0725309,162.808745 15.9099794,162.808745 18.4636831,161.754835 L24.625,159.201132 C28.3136831,164.186934 32.6914609,168.524177 37.6772634,172.253395 L35.1235597,178.414712 C34.0696502,180.968416 34.0696502,183.805864 35.1235597,186.359568 C36.1774691,188.913272 38.2042181,190.940021 40.7579218,191.99393 L50.6889918,196.128498 C55.9990741,198.317387 62.079321,195.804218 64.2682099,190.494136 L66.8219136,184.332819 C72.9426955,185.224588 79.1445473,185.224588 85.2653292,184.332819 L87.8190329,190.494136 C88.8729424,193.04784 90.8996914,195.074588 93.4533951,196.128498 C96.0070988,197.182407 98.8445473,197.182407 101.398251,196.128498 Z" id="Shape" fill="#5764C6"></path>
                        <path d="M43.4332305,121.098251 C43.5548354,139.014712 58.187963,153.4857 76.0638889,153.4857 L76.3070988,153.4857 C85.0221193,153.40463 93.2101852,149.959156 99.3309671,143.757305 C105.451749,137.555453 108.775617,129.326852 108.735082,120.611831 C108.735082,118.422942 106.911008,116.639403 104.722119,116.639403 L104.681584,116.639403 C102.45216,116.639403 100.668621,118.463477 100.709156,120.692901 C100.749691,127.259568 98.2365226,133.46142 93.615535,138.163477 C88.9945473,142.865535 82.8332305,145.459774 76.2665638,145.500309 L76.1044239,145.500309 C62.6062757,145.500309 51.5807613,134.555864 51.4996914,121.057716 C51.4186214,107.478498 62.3630658,96.3719136 75.942284,96.2503086 C78.1717078,96.2503086 79.9552469,94.4262346 79.9147119,92.1968107 C79.9147119,90.0079218 78.0906379,88.2243827 75.901749,88.2243827 C75.901749,88.2243827 75.901749,88.2243827 75.861214,88.2243827 C57.8231481,88.3459877 43.3116255,103.10072 43.4332305,121.098251 Z" id="Shape" fill="#5764C6"></path>
                        <path d="M143.79784,0.101337449 L135.974588,0.101337449 C131.191461,0.101337449 127.300103,3.99269547 127.300103,8.77582305 L127.300103,12.788786 C123.408745,13.8426955 119.679527,15.3830247 116.193519,17.4097737 L113.35607,14.5723251 C111.734671,12.9509259 109.545782,12.0186214 107.235288,12.0186214 C104.924794,12.0186214 102.735905,12.9103909 101.114506,14.5723251 L95.601749,20.0850823 C93.9803498,21.7064815 93.0480453,23.8953704 93.0480453,26.2058642 C93.0480453,28.516358 93.9398148,30.7052469 95.601749,32.3266461 L98.4391975,35.1640947 C96.4124486,38.6501029 94.8721193,42.379321 93.8182099,46.270679 L89.8052469,46.270679 C85.0221193,46.270679 81.1307613,50.162037 81.1307613,54.9451646 L81.1307613,62.7684156 C81.1307613,67.5515432 85.0221193,71.4429012 89.8052469,71.4429012 L93.8182099,71.4429012 C94.8721193,75.3342593 96.4124486,79.0634774 98.4391975,82.5494856 L95.601749,85.3869342 C93.9803498,87.0083333 93.0480453,89.1972222 93.0480453,91.507716 C93.0480453,93.8182099 93.9398148,96.0070988 95.601749,97.6284979 L101.114506,103.141255 C102.735905,104.762654 104.924794,105.694959 107.235288,105.694959 C109.545782,105.694959 111.734671,104.803189 113.35607,103.141255 L116.193519,100.303807 C119.679527,102.330556 123.408745,103.870885 127.300103,104.924794 L127.300103,108.937757 C127.300103,113.720885 131.191461,117.612243 135.974588,117.612243 L143.79784,117.612243 C148.580967,117.612243 152.472325,113.720885 152.472325,108.937757 L152.472325,104.924794 C156.363683,103.870885 160.092901,102.330556 163.578909,100.303807 L166.416358,103.141255 C168.037757,104.762654 170.226646,105.694959 172.53714,105.694959 C174.847634,105.694959 177.036523,104.803189 178.657922,103.141255 L184.170679,97.6284979 C187.535082,94.2640947 187.535082,88.7513374 184.170679,85.3869342 L181.33323,82.5494856 C183.359979,79.0634774 184.900309,75.3342593 185.954218,71.4429012 L189.967181,71.4429012 C194.750309,71.4429012 198.641667,67.5515432 198.641667,62.7684156 L198.641667,54.9451646 C198.641667,50.162037 194.750309,46.270679 189.967181,46.270679 L185.954218,46.270679 C184.900309,42.379321 183.359979,38.6501029 181.33323,35.1640947 L184.170679,32.3266461 C187.535082,28.9622428 187.535082,23.4494856 184.170679,20.0850823 L178.657922,14.5723251 C177.036523,12.9509259 174.847634,12.0186214 172.53714,12.0186214 C170.226646,12.0186214 168.037757,12.9103909 166.416358,14.5723251 L163.578909,17.4097737 C160.092901,15.3830247 156.363683,13.8426955 152.472325,12.788786 L152.472325,8.77582305 C152.43179,3.99269547 148.540432,0.101337449 143.79784,0.101337449 Z M161.916975,25.8005144 C162.60607,26.2463992 163.376235,26.4896091 164.146399,26.4896091 C165.200309,26.4896091 166.213683,26.0842593 166.983848,25.3140947 L172.05072,20.2472222 C172.21286,20.0850823 172.375,20.0445473 172.496605,20.0445473 C172.61821,20.0445473 172.78035,20.0850823 172.94249,20.2472222 L178.455247,25.7599794 C178.698457,26.0031893 178.698457,26.4085391 178.455247,26.651749 L173.388374,31.7186214 C172.05072,33.0562757 171.80751,35.2046296 172.901955,36.7854938 C175.820473,41.1227366 177.806687,45.9463992 178.820062,51.0538066 C179.184877,52.9184156 180.846811,54.2966049 182.751955,54.2966049 L189.926646,54.2966049 C190.291461,54.2966049 190.575206,54.5803498 190.575206,54.9451646 L190.575206,62.7684156 C190.575206,63.1332305 190.291461,63.4169753 189.926646,63.4169753 L182.751955,63.4169753 C180.846811,63.4169753 179.184877,64.7546296 178.820062,66.6597737 C177.806687,71.7671811 175.820473,76.5908436 172.901955,80.9280864 C171.848045,82.5089506 172.05072,84.6573045 173.388374,85.9949588 L178.455247,91.0618313 C178.698457,91.3050412 178.698457,91.7103909 178.455247,91.9536008 L172.94249,97.466358 C172.78035,97.6284979 172.61821,97.6690329 172.496605,97.6690329 C172.375,97.6690329 172.21286,97.6284979 172.05072,97.466358 L166.983848,92.3184156 C165.646193,90.9807613 163.49784,90.7375514 161.916975,91.8319959 C157.579733,94.7505144 152.75607,96.7367284 147.648663,97.7501029 C145.784053,98.1149177 144.405864,99.7768519 144.405864,101.681996 L144.405864,108.856687 C144.405864,109.221502 144.122119,109.505247 143.757305,109.505247 L135.934053,109.505247 C135.569239,109.505247 135.285494,109.221502 135.285494,108.856687 L135.285494,101.681996 C135.285494,99.7768519 133.94784,98.1149177 132.042695,97.7501029 C126.935288,96.7367284 122.111626,94.7505144 117.774383,91.8319959 C116.193519,90.7780864 114.045165,90.9807613 112.70751,92.3184156 L107.640638,97.3852881 C107.478498,97.547428 107.316358,97.587963 107.194753,97.587963 C107.073148,97.587963 106.911008,97.547428 106.748868,97.3852881 L101.236111,91.8725309 C101.073971,91.7103909 101.033436,91.548251 101.033436,91.4266461 C101.033436,91.3050412 101.073971,91.1429012 101.236111,90.9807613 L106.302984,85.9138889 C107.640638,84.5762346 107.883848,82.4278807 106.789403,80.8470165 C103.870885,76.5097737 101.884671,71.6861111 100.871296,66.5787037 C100.506481,64.7140947 98.8445473,63.3359053 96.9394033,63.3359053 L89.7647119,63.3359053 C89.3998971,63.3359053 89.1161523,63.0521605 89.1161523,62.6873457 L89.1161523,54.8640947 C89.1161523,54.4992798 89.3998971,54.215535 89.7647119,54.215535 L96.9394033,54.215535 C98.8445473,54.215535 100.506481,52.8778807 100.871296,50.9727366 C101.884671,45.8653292 103.870885,41.0416667 106.789403,36.7044239 C107.843313,35.1235597 107.640638,32.9752058 106.302984,31.6375514 L101.236111,26.570679 C101.073971,26.4085391 101.033436,26.2463992 101.033436,26.1247942 C101.033436,26.0031893 101.073971,25.8410494 101.236111,25.6789095 L106.748868,20.1661523 C106.911008,20.0040123 107.073148,19.9634774 107.194753,19.9634774 C107.316358,19.9634774 107.478498,20.0040123 107.640638,20.1661523 L112.70751,25.2330247 C114.045165,26.570679 116.193519,26.8138889 117.774383,25.7194444 C122.111626,22.8009259 126.935288,20.8147119 132.042695,19.8013374 C133.907305,19.4365226 135.285494,17.7745885 135.285494,15.8694444 L135.285494,8.77582305 C135.285494,8.41100823 135.569239,8.12726337 135.934053,8.12726337 L143.757305,8.12726337 C144.122119,8.12726337 144.405864,8.41100823 144.405864,8.77582305 L144.405864,15.9505144 C144.405864,17.8556584 145.743519,19.5175926 147.648663,19.8824074 C152.75607,20.8957819 157.579733,22.8819959 161.916975,25.8005144 Z" id="Shape" fill="#F9C76B"></path>
                        <path d="M116.071914,58.7959877 C116.071914,71.929321 126.773148,82.6305556 139.906481,82.6305556 C153.039815,82.6305556 163.741049,71.929321 163.741049,58.7959877 C163.741049,45.6626543 153.039815,34.9614198 139.906481,34.9614198 C126.773148,34.9614198 116.071914,45.6626543 116.071914,58.7959877 Z M155.674588,58.7959877 C155.674588,67.5110082 148.580967,74.6046296 139.865947,74.6046296 C131.150926,74.6046296 124.057305,67.5110082 124.057305,58.7959877 C124.057305,50.0809671 131.150926,42.9873457 139.865947,42.9873457 C148.580967,42.9873457 155.674588,50.1215021 155.674588,58.7959877 Z" id="Shape" fill="#F9C76B"></path>
                    </g>
                </g>
            </g>
        </g>
    </g>
</svg>