<?xml version="1.0" encoding="UTF-8"?>
<svg width="150px" height="126px" viewBox="0 0 150 126" version="1.1" xmlns="http://www.w3.org/2000/svg" xmlns:xlink="http://www.w3.org/1999/xlink">
    <!-- Generator: Sketch 42 (36781) - http://www.bohemiancoding.com/sketch -->
    <title>wifi-signal</title>
    <desc>Created with Sketch.</desc>
    <defs></defs>
    <g id="Page-1" stroke="none" stroke-width="1" fill="none" fill-rule="evenodd">
        <g id="Configuration-02" transform="translate(-337.000000, -532.000000)" fill-rule="nonzero">
            <g id="Group-4" transform="translate(166.000000, 403.000000)">
                <g id="Group-3" transform="translate(75.000000, 21.000000)">
                    <g id="wifi-signal" transform="translate(96.000000, 108.000000)">
                        <g id="Capa_1">
                            <g id="Group">
                                <path d="M134.677419,78.94 L15.3225806,78.94 C6.87387097,78.94 0,85.813871 0,94.2625806 L0,109.961613 C0,118.410323 6.87387097,125.284194 15.3225806,125.284194 L134.677419,125.284194 C143.126129,125.284194 150,118.410323 150,109.961613 L150,94.2625806 C150,85.8135484 143.126129,78.94 134.677419,78.94 Z M145.16129,109.961613 C145.16129,115.742581 140.458387,120.445484 134.677419,120.445484 L15.3225806,120.445484 C9.5416129,120.445484 4.83870968,115.742581 4.83870968,109.961613 L4.83870968,94.2625806 C4.83870968,88.4816129 9.5416129,83.7787097 15.3225806,83.7787097 L134.677419,83.7787097 C140.458387,83.7787097 145.16129,88.4816129 145.16129,94.2625806 L145.16129,109.961613 Z" id="Shape" fill="#394C9B"></path>
                                <path d="M57.3332258,23.9025806 C57.9522581,23.9025806 58.5716129,23.6664516 59.0441935,23.1941935 C59.9890323,22.2490323 59.9890323,20.7174194 59.0441935,19.7725806 C48.816129,9.54516129 32.1745161,9.54483871 21.9464516,19.7725806 C21.0016129,20.7177419 21.0016129,22.2493548 21.9464516,23.1941935 C22.8916129,24.1387097 24.4232258,24.1387097 25.3680645,23.1941935 C33.7093548,14.8522581 47.2816129,14.8529032 55.6222581,23.1941935 C56.0951613,23.666129 56.7141935,23.9025806 57.3332258,23.9025806 Z" id="Shape" fill="#394C9B"></path>
                                <path d="M16.9493548,14.7751613 C29.9325806,1.79096774 51.0580645,1.7916129 64.0412903,14.7751613 C64.513871,15.2474194 65.1332258,15.4835484 65.7522581,15.4835484 C66.3712903,15.4835484 66.9906452,15.2474194 67.4632258,14.7751613 C68.4080645,13.83 68.4080645,12.2983871 67.4632258,11.3535484 C60.2706452,4.16096774 50.6932258,0.2 40.4954839,0.2 C30.2977419,0.2 20.72,4.16096774 13.5274194,11.3535484 C12.5825806,12.2987097 12.5825806,13.8303226 13.5274194,14.7751613 C14.4725806,15.7193548 16.0041935,15.7193548 16.9493548,14.7751613 Z" id="Shape" fill="#394C9B"></path>
                                <path d="M50.6251613,31.6129032 C51.57,30.6677419 51.57,29.136129 50.6251613,28.1912903 C45.0396774,22.606129 35.9516129,22.606129 30.3651613,28.1912903 C29.4203226,29.1364516 29.4203226,30.6680645 30.3651613,31.6129032 C31.3103226,32.5574194 32.8419355,32.5574194 33.7867742,31.6129032 C37.486129,27.9135484 43.5045161,27.9141935 47.2032258,31.6129032 C47.6758065,32.0851613 48.2951613,32.3212903 48.9141935,32.3212903 C49.5332258,32.3212903 50.1529032,32.0851613 50.6251613,31.6129032 Z" id="Shape" fill="#394C9B"></path>
                                <path d="M75,95.2825806 C73.6635484,95.2825806 72.5806452,96.3654839 72.5806452,97.7019355 L72.5806452,106.522258 C72.5806452,107.85871 73.6635484,108.941613 75,108.941613 C76.3364516,108.941613 77.4193548,107.85871 77.4193548,106.522258 L77.4193548,97.7019355 C77.4193548,96.3654839 76.3364516,95.2825806 75,95.2825806 Z" id="Shape" fill="#F5A623"></path>
                                <path d="M93.1451613,95.2825806 C91.8087097,95.2825806 90.7258065,96.3654839 90.7258065,97.7019355 L90.7258065,106.522258 C90.7258065,107.85871 91.8087097,108.941613 93.1451613,108.941613 C94.4816129,108.941613 95.5645161,107.85871 95.5645161,106.522258 L95.5645161,97.7019355 C95.5645161,96.3654839 94.4816129,95.2825806 93.1451613,95.2825806 Z" id="Shape" fill="#F5A623"></path>
                                <path d="M129.435484,95.2825806 C128.099032,95.2825806 127.016129,96.3654839 127.016129,97.7019355 L127.016129,106.522258 C127.016129,107.85871 128.099032,108.941613 129.435484,108.941613 C130.771935,108.941613 131.854839,107.85871 131.854839,106.522258 L131.854839,97.7019355 C131.854839,96.3654839 130.771935,95.2825806 129.435484,95.2825806 Z" id="Shape" fill="#F5A623"></path>
                                <path d="M111.290323,95.2825806 C109.953871,95.2825806 108.870968,96.3654839 108.870968,97.7019355 L108.870968,106.522258 C108.870968,107.85871 109.953871,108.941613 111.290323,108.941613 C112.626774,108.941613 113.709677,107.85871 113.709677,106.522258 L113.709677,97.7019355 C113.709677,96.3654839 112.626774,95.2825806 111.290323,95.2825806 Z" id="Shape" fill="#F5A623"></path>
                                <path d="M45.333871,77.1658065 C46.6703226,77.1658065 47.7532258,76.0829032 47.7532258,74.7464516 L47.7532258,43.1483871 C47.7532258,39.1464516 44.4974194,35.8906452 40.4954839,35.8906452 C36.4935484,35.8906452 33.2374194,39.1464516 33.2374194,43.1483871 L33.2374194,74.7464516 C33.2374194,76.0829032 34.3203226,77.1658065 35.6567742,77.1658065 C36.9932258,77.1658065 38.076129,76.0829032 38.076129,74.7464516 L38.076129,43.1483871 C38.076129,41.8145161 39.1612903,40.7293548 40.4954839,40.7293548 C41.8293548,40.7293548 42.9145161,41.8145161 42.9145161,43.1483871 L42.9145161,74.7464516 C42.9145161,76.0825806 43.9977419,77.1658065 45.333871,77.1658065 Z" id="Shape" fill="#394C9B"></path>
                            </g>
                        </g>
                    </g>
                </g>
            </g>
        </g>
    </g>
</svg>