<?xml version="1.0" encoding="UTF-8"?>
<svg width="1440px" height="1060px" viewBox="0 0 1440 1060" version="1.1" xmlns="http://www.w3.org/2000/svg" xmlns:xlink="http://www.w3.org/1999/xlink">
    <!-- Generator: Sketch 42 (36781) - http://www.bohemiancoding.com/sketch -->
    <title>Group 9</title>
    <desc>Created with Sketch.</desc>
    <defs>
        <polygon id="path-1" points="367.194953 0.0664398827 0.401040231 0.0664398827 0.401040231 366.842414 367.194953 366.842414 367.194953 0.0664398827"></polygon>
    </defs>
    <g id="Page-1" stroke="none" stroke-width="1" fill="none" fill-rule="evenodd" opacity="0.0693213619">
        <g id="Configuration-01" transform="translate(0.000000, -100.000000)">
            <g id="Bitmap-Copy" transform="translate(0.000000, 100.000000)">
                <g id="Group-9" transform="translate(-32.000000, -281.000000)">
                    <g id="BG">
                        <g id="Group-7" transform="translate(0.000000, 269.845584)" fill="#000000">
                            <path d="M12.458045,1127.15069 L0,1127.15069 L0,987.537653 L1.82302725,985.712632 L722.832379,264.738169 C771.346083,216.22875 850.276103,216.22875 898.789806,264.738169 C922.287756,288.237125 935.229588,319.478403 935.229588,352.710802 C935.229588,385.943201 922.287756,417.18448 898.789806,440.683436 L554.59894,784.858638 C521.327655,818.128409 511.845006,865.796949 529.851034,909.265242 C547.857062,952.733535 588.273036,979.737195 635.322919,979.737195 C665.818137,979.737195 694.488251,967.863142 716.048974,946.301324 L911.715028,750.646251 C943.39376,718.966884 985.516487,701.520186 1030.31769,701.520186 C1122.80414,701.520186 1198.04866,776.761277 1198.04866,869.243518 L1198.04866,927.953535 C1198.04866,963.376374 1226.86827,992.194673 1262.29272,992.194673 C1279.45368,992.194673 1295.58684,985.513313 1307.7189,973.379729 L1489.33851,791.768386 L1498.14843,800.575823 L1316.52882,982.187166 C1302.04219,996.675213 1282.78205,1004.65215 1262.29272,1004.65215 C1219.99973,1004.65215 1185.59061,970.244597 1185.59061,927.953535 L1185.59061,869.243518 C1185.59061,783.6295 1115.93561,713.977664 1030.31769,713.977664 C988.842785,713.977664 949.85118,730.128785 920.522866,759.453688 L724.858888,955.110838 C700.943594,979.025043 669.146511,992.194673 635.324995,992.194673 C583.138245,992.194673 538.312123,962.24482 518.341877,914.032304 C498.369554,865.821864 508.888297,812.948175 545.789026,776.049125 L889.977816,431.875999 C911.125347,410.72943 922.771543,382.614978 922.771543,352.710802 C922.771543,322.806626 911.125347,294.692175 889.977816,273.545606 C868.832361,252.401113 840.71663,240.755447 810.811093,240.755447 C780.905556,240.755447 752.789825,252.401113 731.64437,273.545606 L12.458045,992.699201 L12.458045,1127.15069 Z" id="Fill-1"></path>
                            <path d="M346.01597,879.640321 C330.561765,879.640321 317.987445,867.066574 317.987445,851.610996 C317.987445,836.157494 330.561765,823.583747 346.01597,823.583747 C361.472251,823.583747 374.046571,836.157494 374.046571,851.610996 C374.046571,867.066574 361.472251,879.640321 346.01597,879.640321 M346.01597,811.126269 C323.691153,811.126269 305.5294,829.289272 305.5294,851.610996 C305.5294,860.032251 308.118597,867.855547 312.532898,874.339664 L51.0032361,1135.85742 L59.8131502,1144.66486 L321.060429,883.427395 C327.945576,888.840169 336.599764,892.097799 346.01597,892.097799 C368.340786,892.097799 386.504616,873.934796 386.504616,851.610996 C386.504616,829.289272 368.340786,811.126269 346.01597,811.126269" id="Fill-3"></path>
                            <path d="M1247.87585,634.170908 C1207.04046,634.170908 1166.20714,618.628128 1135.12017,587.542568 C1072.94829,525.371447 1072.94829,424.212574 1135.12017,362.041453 L1496.93501,0.245148352 L1505.74285,9.0525853 L1143.928,370.850967 C1086.61477,428.165747 1086.61477,521.420351 1143.93008,578.735131 C1201.24539,636.047835 1294.50632,636.047835 1351.8237,578.735131 L1489.52663,441.036398 L1498.33447,449.843835 L1360.63154,587.542568 C1329.54457,618.628128 1288.71125,634.170908 1247.87585,634.170908" id="Fill-5"></path>
                        </g>
                        <path d="M129.046659,769.964685 L234.933812,769.964685 L234.933812,664.082351 L129.046659,664.082351 L129.046659,769.964685 Z M300.755892,681.070198 L300.755892,668.61272 L247.391857,668.61272 L247.391857,651.622796 L230.40116,651.622796 L230.40116,603.869131 L217.943115,603.869131 L217.943115,651.622796 L188.21822,651.622796 L188.21822,603.869131 L175.760175,603.869131 L175.760175,651.622796 L146.035279,651.622796 L146.035279,603.869131 L133.577234,603.869131 L133.577234,651.622796 L116.588614,651.622796 L116.588614,668.61272 L74.4409713,668.61272 L74.4409713,681.070198 L116.588614,681.070198 L116.588614,710.793741 L74.4409713,710.793741 L74.4409713,723.251219 L116.588614,723.251219 L116.588614,752.974761 L74.4409713,752.974761 L74.4409713,765.432239 L116.588614,765.432239 L116.588614,782.422163 L133.577234,782.422163 L133.577234,830.175829 L146.035279,830.175829 L146.035279,782.422163 L175.760175,782.422163 L175.760175,830.175829 L188.21822,830.175829 L188.21822,782.422163 L217.943115,782.422163 L217.943115,830.175829 L230.40116,830.175829 L230.40116,782.422163 L247.391857,782.422163 L247.391857,765.432239 L300.755892,765.432239 L300.755892,752.974761 L247.391857,752.974761 L247.391857,723.251219 L300.755892,723.251219 L300.755892,710.793741 L247.391857,710.793741 L247.391857,681.070198 L300.755892,681.070198 Z" id="Fill-8" fill="#000000"></path>
                        <g id="Group-21" transform="translate(316.603806, 0.586691)">
                            <path d="M661.626386,1186.26957 C641.018703,1186.26957 624.254327,1203.03318 624.254327,1223.63993 C624.254327,1244.24667 641.018703,1261.01029 661.626386,1261.01029 C682.234068,1261.01029 698.998444,1244.24667 698.998444,1223.63993 C698.998444,1203.03318 682.234068,1186.26957 661.626386,1186.26957 M661.626386,1273.46777 C634.150167,1273.46777 611.796282,1251.1149 611.796282,1223.63993 C611.796282,1196.16496 634.150167,1173.81209 661.626386,1173.81209 C689.102604,1173.81209 711.456489,1196.16496 711.456489,1223.63993 C711.456489,1251.1149 689.102604,1273.46777 661.626386,1273.46777" id="Fill-9" fill="#000000"></path>
                            <path d="M12.4962154,1335.751 L199.356508,1335.751 L199.356508,1298.38065 L12.4962154,1298.38065 L12.4962154,1335.751 Z M0.0381704135,1348.20848 L211.814553,1348.20848 L211.814553,1285.92317 L0.0381704135,1285.92317 L0.0381704135,1348.20848 Z" id="Fill-11" fill="#000000"></path>
                            <path d="M661.626386,1209.54741 C653.854642,1209.54741 647.532184,1215.86958 647.532184,1223.64097 C647.532184,1231.41236 653.854642,1237.73453 661.626386,1237.73453 C669.398129,1237.73453 675.720587,1231.41236 675.720587,1223.64097 C675.720587,1215.86958 669.398129,1209.54741 661.626386,1209.54741 M661.626386,1250.19201 C646.986106,1250.19201 635.074139,1238.28058 635.074139,1223.64097 C635.074139,1208.99928 646.986106,1197.08993 661.626386,1197.08993 C676.266665,1197.08993 688.178632,1208.99928 688.178632,1223.64097 C688.178632,1238.28058 676.266665,1250.19201 661.626386,1250.19201" id="Fill-13" fill="#000000"></path>
                            <g id="Group-20" transform="translate(754.788061, 0.000000)">
                                <path d="M39.4504757,422.650047 C24.5672647,422.650047 12.458045,410.541378 12.458045,395.658845 C12.458045,380.776311 24.5672647,368.667642 39.4504757,368.667642 C54.3336868,368.667642 66.4429065,380.776311 66.4429065,395.658845 C66.4429065,410.541378 54.3336868,422.650047 39.4504757,422.650047 M39.4504757,356.210164 C17.6966529,356.210164 0,373.906012 0,395.658845 C0,417.411677 17.6966529,435.107525 39.4504757,435.107525 C61.2042986,435.107525 78.9009514,417.411677 78.9009514,395.658845 C78.9009514,373.906012 61.2042986,356.210164 39.4504757,356.210164" id="Fill-15" fill="#000000"></path>
                                <g id="Group-19" transform="translate(59.560984, 0.000000)">
                                    <mask id="mask-2" fill="white">
                                        <use xlink:href="#path-1"></use>
                                    </mask>
                                    <g id="Clip-18"></g>
                                    <polygon id="Fill-17" fill="#000000" mask="url(#mask-2)" points="367.194953 8.87470733 358.387115 0.0651941349 0.401040231 358.034977 9.20887802 366.842414"></polygon>
                                </g>
                            </g>
                        </g>
                    </g>
                </g>
            </g>
        </g>
    </g>
</svg>